<svg width="20" height="20" viewBox="0 0 20 20" fill="none" xmlns="http://www.w3.org/2000/svg">
<g id="vuesax/linear/ticket">
<g id="ticket-star">
<path id="Vector" d="M14.1663 17.2917H5.83294C2.29128 17.2917 1.13294 16.2333 1.04961 12.9333C1.04961 12.7667 1.10794 12.6 1.22461 12.4833C1.34128 12.3667 1.49961 12.2917 1.67461 12.2917C2.93294 12.2917 3.95794 11.2583 3.95794 10C3.95794 8.74168 2.93294 7.70834 1.67461 7.70834C1.50794 7.70834 1.34961 7.64168 1.22461 7.51668C1.09961 7.39168 1.04128 7.23334 1.04961 7.06668C1.13294 3.76668 2.29128 2.70834 5.83294 2.70834H14.1663C17.8413 2.70834 18.9579 3.82501 18.9579 7.50001V12.5C18.9579 16.175 17.8413 17.2917 14.1663 17.2917ZM2.32461 13.4833C2.46628 15.6 3.18294 16.0417 5.83294 16.0417H14.1663C17.1496 16.0417 17.7079 15.475 17.7079 12.5V7.50001C17.7079 4.52501 17.1496 3.95834 14.1663 3.95834H5.83294C3.18294 3.95834 2.46628 4.40834 2.32461 6.51668C3.96628 6.83334 5.20794 8.27501 5.20794 10C5.20794 11.725 3.96628 13.1667 2.32461 13.4833Z" fill="#86909C"/>
<path id="Vector_2" d="M7.5 6.87501C7.15833 6.87501 6.875 6.59168 6.875 6.25001V3.33334C6.875 2.99168 7.15833 2.70834 7.5 2.70834C7.84167 2.70834 8.125 2.99168 8.125 3.33334V6.25001C8.125 6.59168 7.84167 6.87501 7.5 6.87501Z" fill="#86909C"/>
<path id="Vector_3" d="M7.5 17.2917C7.15833 17.2917 6.875 17.0083 6.875 16.6667V13.75C6.875 13.4083 7.15833 13.125 7.5 13.125C7.84167 13.125 8.125 13.4083 8.125 13.75V16.6667C8.125 17.0083 7.84167 17.2917 7.5 17.2917Z" fill="#86909C"/>
<path id="Vector_4" d="M10.8668 13.0413C10.6668 13.0413 10.4668 12.9747 10.3001 12.858C10.0001 12.6413 9.85012 12.2747 9.91679 11.908L10.0918 10.9163L9.36679 10.208C9.10012 9.94967 9.00845 9.56634 9.11679 9.21634C9.23345 8.86634 9.53345 8.60801 9.90012 8.55801L10.9001 8.40801L11.3501 7.49967C11.5168 7.16634 11.8501 6.95801 12.2168 6.95801C12.5918 6.95801 12.9251 7.16634 13.0835 7.49967L13.5335 8.40801L14.5335 8.55801C14.9001 8.60801 15.2001 8.86634 15.3168 9.21634C15.4335 9.56634 15.3335 9.94967 15.0668 10.208L14.3418 10.9163L14.5168 11.908C14.5835 12.2747 14.4335 12.6413 14.1335 12.858C13.8335 13.0747 13.4418 13.0997 13.1168 12.933L12.2251 12.4663L11.3251 12.933C11.1835 13.008 11.0251 13.0413 10.8668 13.0413ZM10.6418 9.70801L11.0668 10.1247C11.3001 10.3497 11.4001 10.6663 11.3501 10.983L11.2501 11.5663L11.7751 11.2913C12.0585 11.1413 12.3918 11.1413 12.6751 11.2913L13.2001 11.5663L13.1001 10.983C13.0501 10.658 13.1501 10.3413 13.3835 10.1247L13.8085 9.70801L13.2251 9.62467C12.9085 9.57467 12.6335 9.37467 12.4918 9.09134L12.2335 8.55801L11.9751 9.09134C11.8335 9.37467 11.5585 9.57467 11.2418 9.62467L10.6418 9.70801Z" fill="#86909C"/>
</g>
</g>
</svg>
