<svg width="20" height="20" viewBox="0 0 20 20" fill="none" xmlns="http://www.w3.org/2000/svg">
<g id="vuesax/linear/bookmark-2">
<g id="bookmark-2">
<path id="Vector" d="M11.9 2.3746C13.3 2.3746 14 3.0816 14 4.4956V9.4306C14 10.8236 13.013 11.3626 11.802 10.6346L10.878 10.0746C10.668 9.9486 10.332 9.9486 10.122 10.0746L9.198 10.6346C7.987 11.3626 7 10.8236 7 9.4306V4.4956C7 3.0816 7.7 2.3746 9.1 2.3746H11.9Z" stroke="#86909C" stroke-width="1.26" stroke-linecap="round" stroke-linejoin="round"/>
<path id="Vector_2" d="M6.615 4.1558C4.0575 4.5833 3 6.1583 3 9.3383V11.6108C3 15.3983 4.5 16.9133 8.25 16.9133H12.75C16.5 16.9133 18 15.3983 18 11.6108V9.3383C18 6.1058 16.905 4.5233 14.25 4.1333" stroke="#86909C" stroke-width="1.5" stroke-linecap="round" stroke-linejoin="round"/>
</g>
</g>
</svg>
