<svg width="20" height="21" viewBox="0 0 20 21" fill="none" xmlns="http://www.w3.org/2000/svg">
<g id="Component 258">
<path id="Vector" d="M14.2322 10.6933L10.4023 14.5231C10.3443 14.5812 10.2815 14.6224 10.2138 14.6467C10.1461 14.6707 10.0735 14.6827 9.99616 14.6827C9.91879 14.6827 9.84625 14.6707 9.77855 14.6467C9.71086 14.6224 9.64799 14.5812 9.58997 14.5231L5.76016 10.6933C5.65378 10.5869 5.59807 10.4541 5.59304 10.2947C5.5884 10.1349 5.64411 9.997 5.76016 9.88095C5.86654 9.76489 5.99943 9.70435 6.15881 9.69932C6.31858 9.69468 6.45649 9.75038 6.57254 9.86644L9.41588 12.7098V6.22522C9.41588 6.06081 9.4714 5.9229 9.58242 5.81149C9.69383 5.70046 9.83175 5.64495 9.99616 5.64495C10.1606 5.64495 10.2983 5.70046 10.4093 5.81149C10.5207 5.9229 10.5764 6.06081 10.5764 6.22522V12.7098L13.4198 9.86644C13.5262 9.76006 13.6616 9.70435 13.826 9.69932C13.9904 9.69468 14.1258 9.75038 14.2322 9.86644C14.3482 9.97282 14.4062 10.1082 14.4062 10.2726C14.4062 10.437 14.3482 10.5773 14.2322 10.6933Z" fill="#4E5969"/>
</g>
</svg>
