<svg width="20" height="20" viewBox="0 0 20 20" fill="none" xmlns="http://www.w3.org/2000/svg">
<g id="fluent:lock-closed-16-regular">
<path id="Vector" d="M6.25 5H5.625C4.7962 5 4.00134 5.32924 3.41529 5.91529C2.82924 6.50134 2.5 7.2962 2.5 8.125V14.375C2.5 15.2038 2.82924 15.9987 3.41529 16.5847C4.00134 17.1708 4.7962 17.5 5.625 17.5H14.375C15.2038 17.5 15.9987 17.1708 16.5847 16.5847C17.1708 15.9987 17.5 15.2038 17.5 14.375V8.125C17.5 7.2962 17.1708 6.50134 16.5847 5.91529C15.9987 5.32924 15.2038 5 14.375 5H13.75V4.375C13.75 3.38044 13.3549 2.42661 12.6517 1.72335C11.9484 1.02009 10.9946 0.625 10 0.625C9.00544 0.625 8.05161 1.02009 7.34835 1.72335C6.64509 2.42661 6.25 3.38044 6.25 4.375V5ZM7.5 4.375C7.5 3.71196 7.76339 3.07607 8.23223 2.60723C8.70107 2.13839 9.33696 1.875 10 1.875C10.663 1.875 11.2989 2.13839 11.7678 2.60723C12.2366 3.07607 12.5 3.71196 12.5 4.375V5H7.5V4.375ZM14.375 6.25C14.8723 6.25 15.3492 6.44754 15.7008 6.79917C16.0525 7.15081 16.25 7.62772 16.25 8.125V14.375C16.25 14.8723 16.0525 15.3492 15.7008 15.7008C15.3492 16.0525 14.8723 16.25 14.375 16.25H5.625C5.12772 16.25 4.65081 16.0525 4.29917 15.7008C3.94754 15.3492 3.75 14.8723 3.75 14.375V8.125C3.75 7.62772 3.94754 7.15081 4.29917 6.79917C4.65081 6.44754 5.12772 6.25 5.625 6.25H14.375Z" fill="#86909C"/>
</g>
</svg>
