<svg width="21" height="20" viewBox="0 0 21 20" fill="none" xmlns="http://www.w3.org/2000/svg">
<g id="Frame 427318961">
<g id="open">
<path id="Vector" fill-rule="evenodd" clip-rule="evenodd" d="M5.04792 3.05501C4.04025 3.41507 3.39537 4.07625 3.13404 5.01723C2.93509 5.73416 2.96621 14.1206 3.17053 14.7993C3.38477 15.5112 3.81119 16.0491 4.46667 16.4345L5.00437 16.7505L9.72065 16.7838C15.1449 16.8221 15.223 16.8116 16.0815 15.9282C16.811 15.1777 16.9194 14.6865 16.9174 12.1406C16.9163 10.9763 16.8721 9.95494 16.819 9.87113C16.7657 9.78722 16.5998 9.73591 16.4501 9.75712L16.178 9.79554L16.121 12.1899C16.0611 14.7017 16.0058 14.9816 15.4729 15.4637C14.8948 15.9869 14.667 16.0094 9.96408 16.0094C6.21385 16.0094 5.44379 15.9817 5.09034 15.8341C4.52504 15.5978 4.27079 15.3547 4.02166 14.8123C3.82966 14.3943 3.81199 13.9771 3.8097 9.81948C3.80731 5.51206 3.81871 5.26031 4.0342 4.83788C4.15905 4.5932 4.44991 4.24887 4.68056 4.07283L5.09991 3.75267L7.49129 3.69567C9.55955 3.64641 9.89897 3.613 10.0023 3.44871C10.0889 3.31098 10.0806 3.20905 9.97206 3.07815C9.84459 2.92457 9.49615 2.89835 7.64134 2.90257C6.15856 2.90599 5.3284 2.95479 5.04792 3.05501ZM12.4645 3.07815C12.3559 3.20905 12.3476 3.31098 12.4342 3.44871C12.5343 3.60765 12.8023 3.6439 14.0766 3.6707L15.5993 3.70262L12.4852 6.81835C9.30324 10.0019 9.06574 10.3107 9.72624 10.4044C9.95176 10.4363 10.529 9.91343 13.0564 7.38729L16.1138 4.33154L16.1459 5.7971C16.1726 7.0181 16.2097 7.28273 16.3679 7.38238C16.5057 7.46904 16.6076 7.46071 16.7385 7.35217C16.8908 7.22573 16.9191 6.88664 16.9191 5.18677C16.9191 3.77115 16.8784 3.13049 16.7823 3.03437C16.6861 2.93826 16.0455 2.89755 14.6299 2.89755C12.93 2.89755 12.5909 2.92583 12.4645 3.07815Z" fill="#86909C" stroke="#86909C" stroke-width="0.5"/>
</g>
</g>
</svg>
