<svg width="48" height="49" viewBox="0 0 48 49" fill="none" xmlns="http://www.w3.org/2000/svg">
<g id="gridicons:create">
<path id="Vector" d="M42 28.7832V38.7832C42 39.8441 41.5786 40.8615 40.8284 41.6116C40.0783 42.3618 39.0609 42.7832 38 42.7832H10C8.93913 42.7832 7.92172 42.3618 7.17157 41.6116C6.42143 40.8615 6 39.8441 6 38.7832V10.7832C6 9.72234 6.42143 8.70492 7.17157 7.95478C7.92172 7.20463 8.93913 6.7832 10 6.7832H20V10.7832H10V38.7832H38V28.7832H42Z" fill="#165DFF"/>
<path id="Vector_2" d="M42 14.7832H34V6.7832H30V14.7832H22V18.7832H30V26.7832H34V18.7832H42V14.7832Z" fill="#165DFF"/>
</g>
</svg>
