<svg width="20" height="20" viewBox="0 0 20 20" fill="none" xmlns="http://www.w3.org/2000/svg">
<g id="vuesax/linear/ticket">
<g id="ticket">
<path id="Vector" d="M16.2501 10.4167C16.2501 9.26666 17.1834 8.33333 18.3334 8.33333V7.49999C18.3334 4.16666 17.5001 3.33333 14.1667 3.33333H5.83341C2.50008 3.33333 1.66675 4.16666 1.66675 7.49999V7.91666C2.81675 7.91666 3.75008 8.84999 3.75008 9.99999C3.75008 11.15 2.81675 12.0833 1.66675 12.0833V12.5C1.66675 15.8333 2.50008 16.6667 5.83341 16.6667H14.1667C17.5001 16.6667 18.3334 15.8333 18.3334 12.5C17.1834 12.5 16.2501 11.5667 16.2501 10.4167Z" stroke="#86909C" stroke-width="1.5" stroke-linecap="round" stroke-linejoin="round"/>
<path id="Vector_2" d="M8.33325 3.33333L8.33325 16.6667" stroke="#86909C" stroke-width="1.5" stroke-linecap="round" stroke-linejoin="round" stroke-dasharray="5 5"/>
</g>
</g>
</svg>
